2.6Hz3min_grf.mot
version=1
nRows=20
nColumns 19
inDegrees=yes
endheader
time	1_ground_force_vx	1_ground_force_vy	1_ground_force_vz	1_ground_force_px	1_ground_force_py	1_ground_force_pz	1_ground_torque_x	1_ground_torque_y	1_ground_torque_z	2_ground_force_vx	2_ground_force_vy	2_ground_force_vz	2_ground_force_px	2_ground_force_py	2_ground_force_pz	2_ground_torque_x	2_ground_torque_y	2_ground_torque_z
            1.253500	            0.046346	            0.359557	            0.230712	           -0.233013	            0.005581	           -0.255695	           -0.066726	           -0.073205	           -0.167389	            0.006126	           -1.658507	            0.322583	           -0.232311	            0.006130	           -0.833667	           -0.055987	           -0.122483	           -0.170066
            1.254000	            0.000521	           -0.361318	            0.181878	           -0.233013	            0.005581	           -0.255695	            0.029578	            0.019144	           -0.150363	           -0.088924	           -1.290381	            0.277009	           -0.232311	            0.006130	           -0.833667	           -0.168725	           -0.113505	           -0.151134
            1.254500	           -0.090871	           -0.722260	            0.272271	           -0.233013	            0.005581	           -0.255695	           -0.049207	            0.065307	           -0.153866	           -0.043445	           -0.921580	            0.184447	           -0.232311	            0.006130	           -0.833667	           -0.149915	           -0.113639	           -0.094592
            1.255000	            0.046951	           -1.083158	            0.362096	           -0.233013	            0.005581	           -0.255695	            0.003503	            0.000599	           -0.129600	           -0.046000	           -0.185824	            0.421716	           -0.232311	            0.006130	           -0.833667	           -0.149846	           -0.132544	           -0.094659
            1.255500	            0.001108	           -1.083167	            0.362210	           -0.233013	            0.005581	           -0.255695	            0.003789	           -0.055366	           -0.019006	           -0.092165	           -0.370309	            0.468007	           -0.232311	            0.006130	           -0.833667	           -0.149820	           -0.151113	           -0.188978
            1.256000	            0.138473	           -0.181812	            0.365733	           -0.233013	            0.005581	           -0.255695	           -0.109540	           -0.101300	           -0.069484	            0.286499	           -1.472841	            0.182336	           -0.232311	            0.006130	           -0.833667	           -0.093618	           -0.103781	           -0.151133
            1.256500	           -0.228466	           -0.361755	            0.274158	           -0.233013	            0.005581	           -0.255695	           -0.030506	           -0.129106	           -0.104229	            0.054325	           -2.026801	            0.368177	           -0.232311	            0.006130	           -0.833667	           -0.112351	           -0.122620	           -0.188893
            1.257000	            0.091557	           -0.540386	           -0.094258	           -0.233013	            0.005581	           -0.255695	            0.022818	           -0.064258	           -0.090394	           -0.185262	           -0.554293	            0.326605	           -0.232311	            0.006130	           -0.833667	           -0.131033	           -0.160229	           -0.264420
            1.257500	            0.367688	           -0.181768	            0.365164	           -0.233013	            0.005581	           -0.255695	           -0.166188	            0.056497	           -0.190480	            0.004735	           -1.289708	            0.183113	           -0.232311	            0.006130	           -0.833667	           -0.187502	           -0.113640	           -0.132276
            1.258000	           -0.228304	           -0.001617	            0.367416	           -0.233013	            0.005581	           -0.255695	            0.002762	            0.092906	           -0.140969	            0.285210	           -1.104879	            0.277507	           -0.232311	            0.006130	           -0.833667	           -0.093541	           -0.122754	           -0.132350
            1.258500	            0.092354	           -0.541762	            0.226733	           -0.233013	            0.005581	           -0.255695	           -0.047295	            0.028336	           -0.127419	            0.005461	           -1.474358	            0.323240	           -0.232311	            0.006130	           -0.833667	           -0.168794	           -0.085416	           -0.075632
            1.259000	            0.046574	            0.359164	            0.322424	           -0.233013	            0.005581	           -0.255695	            0.041806	           -0.054372	           -0.242770	            0.099784	           -1.657833	            0.228687	           -0.232311	            0.006130	           -0.833667	           -0.131035	           -0.141862	           -0.113551
            1.259500	           -0.137010	            0.900122	            0.279342	           -0.233013	            0.005581	           -0.255695	           -0.012447	           -0.101491	           -0.062695	            0.101860	           -2.210948	            0.414428	           -0.232311	            0.006130	           -0.833667	           -0.131009	           -0.151247	           -0.132435
            1.260000	            0.046023	           -0.360719	            0.044196	           -0.233013	            0.005581	           -0.255695	            0.016654	           -0.110170	           -0.167729	            0.052955	           -1.658170	            0.275635	           -0.232311	            0.006130	           -0.833667	            0.000319	           -0.112693	           -0.207757
            1.260500	           -0.090856	           -0.181660	            0.320446	           -0.233013	            0.005581	           -0.255695	            0.023502	           -0.026950	           -0.192058	            0.054325	           -2.026801	            0.368177	           -0.232311	            0.006130	           -0.833667	           -0.074651	           -0.169411	           -0.283328
            1.261000	            0.091914	           -0.000375	            0.091484	           -0.233013	            0.005581	           -0.255695	           -0.041980	            0.121088	           -0.202246	            0.052975	           -1.658337	            0.322563	           -0.232311	            0.006130	           -0.833667	           -0.131137	           -0.122688	           -0.188885
            1.261500	            0.046789	           -1.443296	            0.268838	           -0.233013	            0.005581	           -0.255695	           -0.104945	            0.028224	           -0.110401	            0.006605	           -1.841149	           -0.100427	           -0.232311	            0.006130	           -0.833667	           -0.074780	           -0.122484	           -0.188909
            1.262000	            0.000422	            0.179479	            0.184197	           -0.233013	            0.005581	           -0.255695	           -0.027124	           -0.027003	           -0.169238	            0.099846	           -1.658336	            0.369471	           -0.232311	            0.006130	           -0.833667	           -0.112351	           -0.122620	           -0.188893
            1.262500	           -0.182820	            0.719848	            0.278682	           -0.233013	            0.005581	           -0.255695	            0.081388	           -0.119739	           -0.121349	           -0.090171	           -0.922754	            0.466036	           -0.232311	            0.006130	           -0.833667	           -0.149878	           -0.141459	           -0.245495
            1.263000	           -0.183159	           -0.541029	            0.043992	           -0.233013	            0.005581	           -0.255695	            0.016982	           -0.129165	           -0.083588	            0.051667	           -1.290208	            0.370805	           -0.232311	            0.006130	           -0.833667	           -0.243910	           -0.095073	           -0.094484
